<svg width="12" height="18" viewBox="0 0 12 18" fill="none" xmlns="http://www.w3.org/2000/svg">
<path d="M6 16.2064C3.56318 16.2064 1.40629 14.9824 0.106982 13.1153C0.636112 15.8972 3.07309 18 6 18C8.92692 18 11.3639 15.8972 11.893 13.1153C10.5937 14.9824 8.43682 16.2064 6 16.2064Z" fill="#6EA929"/>
<path d="M6 13.2261C3.56318 13.2261 1.40629 12.0021 0.106982 10.1351C0.636112 12.9169 3.07309 15.0197 6 15.0197C8.92692 15.0197 11.3639 12.9169 11.893 10.1351C10.5937 12.0021 8.43682 13.2261 6 13.2261Z" fill="#6EA929"/>
<path d="M6 12.0393C9.3137 12.0393 12 9.34423 12 6.01965C12 2.69506 9.3137 0 6 0C2.6863 0 0 2.6951 0 6.01965C0 9.34419 2.6863 12.0393 6 12.0393Z" fill="#6EA929"/>
</svg>
