<svg width="15" height="15" viewBox="0 0 15 15" fill="none" xmlns="http://www.w3.org/2000/svg">
<path d="M13.9383 3.64511L12.4136 4.84882C12.8426 5.63894 13.0833 6.54017 13.0833 7.50005C13.0833 7.82103 13.0556 8.13585 13.0031 8.44449L14.8302 9.09572C14.9414 8.5772 15 8.04325 15 7.50005C15 6.12042 14.6296 4.79943 13.9383 3.64511Z" fill="#6EA929"/>
<path d="M7.5 13.0833C4.42284 13.0833 1.91667 10.5803 1.91667 7.50001C1.91667 6.58026 2.13889 5.71298 2.53704 4.94755L0.987654 3.77471C0.342593 4.89508 0 6.17286 0 7.50001C0 9.5031 0.780864 11.3858 2.19753 12.8025C3.6142 14.2191 5.49691 15 7.5 15C9.50308 15 11.3858 14.2191 12.8025 12.8025C13.3704 12.2346 13.8333 11.5957 14.1883 10.9012L12.358 10.25C11.3981 11.9414 9.58025 13.0833 7.5 13.0833Z" fill="#6EA929"/>
<path d="M7.50003 1.91666C8.92904 1.91666 10.2346 2.45679 11.2223 3.34259L12.7469 2.14197C11.3364 0.759258 9.47843 0 7.50003 0C5.49695 0 3.61423 0.780863 2.19757 2.19753C2.18213 2.21296 2.16361 2.23148 2.14818 2.24691L3.69756 3.41666C4.69139 2.48765 6.0309 1.91666 7.50003 1.91666Z" fill="#6EA929"/>
<path d="M7.49998 3.54319C5.3148 3.54319 3.54319 5.31479 3.54319 7.49997C3.54319 9.68515 5.3148 11.4567 7.49998 11.4567C9.68517 11.4567 11.4568 9.68515 11.4568 7.49997C11.4568 5.31479 9.68517 3.54319 7.49998 3.54319ZM8.63578 9.0586C8.46294 9.26848 8.23764 9.41046 7.97529 9.48144C7.86109 9.51231 7.80862 9.57404 7.8148 9.69132C7.82097 9.8086 7.8148 9.92589 7.8148 10.0432C7.8148 10.1481 7.76233 10.2037 7.65739 10.2068C7.58949 10.2098 7.52467 10.2098 7.45677 10.2098C7.39813 10.2098 7.33949 10.2098 7.28085 10.2068C7.16973 10.2037 7.11727 10.1419 7.11727 10.0339C7.11727 9.94749 7.11727 9.86416 7.11418 9.77774C7.11109 9.58947 7.10492 9.58021 6.92591 9.55243C6.69443 9.51539 6.46603 9.46292 6.25307 9.36107C6.0864 9.28083 6.06788 9.23762 6.11727 9.06478C6.1543 8.93515 6.18825 8.80552 6.22838 8.67589C6.25924 8.58021 6.28393 8.54009 6.3364 8.54009C6.36727 8.54009 6.4043 8.55552 6.45369 8.58021C6.68825 8.70367 6.93825 8.77157 7.19751 8.80243C7.24072 8.80861 7.28702 8.81169 7.33023 8.81169C7.45369 8.81169 7.57097 8.79009 7.68517 8.73762C7.97529 8.61108 8.02159 8.27466 7.77467 8.07095C7.69134 8.00305 7.59566 7.95058 7.49689 7.90737C7.24072 7.79626 6.97529 7.70984 6.73455 7.56478C6.34257 7.33021 6.09566 7.00923 6.12652 6.53392C6.16048 5.99688 6.46294 5.66047 6.95677 5.48145C7.16047 5.40738 7.16048 5.41047 7.16356 5.1975C7.16356 5.12652 7.16356 5.05244 7.16356 4.98145C7.16665 4.82096 7.19443 4.79318 7.35492 4.7901C7.37344 4.7901 7.39196 4.7901 7.41048 4.7901C7.44134 4.7901 7.4722 4.7901 7.50307 4.7901C7.51541 4.7901 7.52776 4.7901 7.5401 4.7901C7.84257 4.7901 7.84257 4.80244 7.84566 5.1296C7.84566 5.37034 7.84566 5.37034 8.0864 5.40738C8.2685 5.43516 8.44443 5.49071 8.61418 5.56479C8.70677 5.60491 8.74381 5.67281 8.71294 5.76849C8.66973 5.91664 8.62961 6.0617 8.58331 6.20676C8.55554 6.29627 8.52776 6.33639 8.47529 6.33639C8.44751 6.33639 8.41047 6.32404 8.36418 6.30244C8.12961 6.18824 7.8827 6.13269 7.62652 6.13269C7.59257 6.13269 7.56171 6.13269 7.52776 6.13577C7.4506 6.13886 7.37652 6.1512 7.30554 6.18207C7.05245 6.29318 7.01233 6.57096 7.22529 6.7438C7.33331 6.83021 7.45986 6.89503 7.58949 6.9475C7.8148 7.04009 8.0401 7.1296 8.25307 7.24688C8.93208 7.62651 9.11418 8.47836 8.63578 9.0586Z" fill="#6EA929"/>
</svg>
