<svg width="15" height="15" viewBox="0 0 15 15" fill="none" xmlns="http://www.w3.org/2000/svg">
<path d="M7.5 0C3.36449 0 0 3.36449 0 7.5C0 11.6355 3.36449 15 7.5 15C11.6355 15 15 11.6355 15 7.5C15 3.36449 11.6355 0 7.5 0ZM7.5 13.792C4.0306 13.792 1.20795 10.9694 1.20795 7.5C1.20795 4.0306 4.0306 1.20795 7.5 1.20795C10.9694 1.20795 13.792 4.0306 13.792 7.5C13.792 10.9694 10.9694 13.792 7.5 13.792Z" fill="#6EA929"/>
<path d="M8.10398 2.5205H6.89602V8.10398H11.03V6.89603H8.10398V2.5205Z" fill="#6EA929"/>
</svg>
